<svg version="1.1" viewBox="0.0 0.0 256.0 256.0" fill="none" stroke="none" stroke-linecap="square" stroke-miterlimit="10" xmlns:xlink="http://www.w3.org/1999/xlink" xmlns="http://www.w3.org/2000/svg"><clipPath id="p.0"><path d="m0 0l256.0 0l0 256.0l-256.0 0l0 -256.0z" clip-rule="nonzero"/></clipPath><g clip-path="url(#p.0)"><path fill="#000000" fill-opacity="0.0" d="m0 0l256.0 0l0 256.0l-256.0 0z" fill-rule="evenodd"/><path fill="#999999" d="m0.008740945 127.99173l0 0c0 -70.68375 57.300503 -127.98425 127.98425 -127.98425l0 0c33.943527 0 66.496826 13.484016 90.498535 37.48572c24.001694 24.001701 37.485718 56.554996 37.485718 90.498535l0 0c0 70.68375 -57.300507 127.98425 -127.98425 127.98425l0 0c-70.683754 0 -127.98425 -57.300507 -127.98425 -127.98425z" fill-rule="evenodd"/><path stroke="#000000" stroke-width="4.0" stroke-linejoin="round" stroke-linecap="butt" d="m0.008740945 127.99173l0 0c0 -70.68375 57.300503 -127.98425 127.98425 -127.98425l0 0c33.943527 0 66.496826 13.484016 90.498535 37.48572c24.001694 24.001701 37.485718 56.554996 37.485718 90.498535l0 0c0 70.68375 -57.300507 127.98425 -127.98425 127.98425l0 0c-70.683754 0 -127.98425 -57.300507 -127.98425 -127.98425z" fill-rule="evenodd"/><path fill="#b7b7b7" d="m1.275916 103.77696l0 0c56.61046 0 102.502304 -45.891846 102.502304 -102.502304l48.444206 0l0 0c0 56.610462 45.891846 102.502304 102.502304 102.502304l0 48.4442l0 0c-56.61046 0 -102.502304 45.891846 -102.502304 102.50232l-48.444206 0c0 -56.610474 -45.891846 -102.50232 -102.502304 -102.50232z" fill-rule="evenodd"/><path fill="#ffffff" d="m38.98846 75.02237l-31.986319 10.079033c-1.3882952 0.49978638 -2.3045697 0.9718094 -2.7488246 1.4160614c-0.5553179 0.7219162 -0.8329768 1.4993668 -0.8329768 2.332344c0 0.9440384 0.34244728 1.7677689 1.0273385 2.4711685c0.70340395 0.6848984 1.4715929 1.0273361 2.3045697 1.0273361c0.49978638 0 1.3049979 -0.16659546 2.4156337 -0.49978638l22.82357 -7.1636124l0 89.29528l-23.989738 0c-1.6659541 0 -2.8598876 0.32392883 -3.5818014 0.971817c-0.72191334 0.62934875 -1.08287 1.4715881 -1.08287 2.5266876c0 0.99957275 0.36095667 1.8325653 1.08287 2.4989471c0.7219138 0.66638184 1.9158473 0.99957275 3.5818014 0.99957275l54.97649 0c1.6659546 0 2.8598862 -0.33319092 3.5818024 -0.99957275c0.72190857 -0.66638184 1.0828705 -1.4993744 1.0828705 -2.4989471c0 -1.0550995 -0.3609619 -1.8973389 -1.0828705 -2.5266876c-0.7219162 -0.6478882 -1.9158478 -0.971817 -3.5818024 -0.971817l-23.989742 0l0 -98.957825z" fill-rule="evenodd"/><path fill="#333333" d="m64.008965 63.993465l64.00001 63.999996l64.0 -63.999996l-64.0 63.999996l64.0 64.00001l-64.0 -64.00001l-64.00001 64.00001l64.00001 -64.00001z" fill-rule="evenodd"/><path stroke="#000000" stroke-width="24.0" stroke-linejoin="round" stroke-linecap="butt" d="m64.008965 63.993465l64.00001 63.999996l64.0 -63.999996l-64.0 63.999996l64.0 64.00001l-64.0 -64.00001l-64.00001 64.00001l64.00001 -64.00001z" fill-rule="evenodd"/><path fill="#ffffff" d="m216.99696 75.02237l31.986328 10.079033c1.3882904 0.49978638 2.3045654 0.9718094 2.748825 1.4160614c0.5553131 0.7219162 0.8329773 1.4993668 0.8329773 2.332344c0 0.9440384 -0.342453 1.7677689 -1.0273438 2.4711685c-0.70339966 0.6848984 -1.4715881 1.0273361 -2.3045654 1.0273361c-0.49978638 0 -1.3050079 -0.16659546 -2.4156342 -0.49978638l-22.823578 -7.1636124l0 89.29528l23.989746 0c1.6659546 0 2.8598785 0.32392883 3.5818024 0.971817c0.72190857 0.62934875 1.0828705 1.4715881 1.0828705 2.5266876c0 0.99957275 -0.3609619 1.8325653 -1.0828705 2.4989471c-0.7219238 0.66638184 -1.9158478 0.99957275 -3.5818024 0.99957275l-54.976486 0c-1.6659546 0 -2.8598938 -0.33319092 -3.5818024 -0.99957275c-0.7219238 -0.66638184 -1.0828705 -1.4993744 -1.0828705 -2.4989471c0 -1.0550995 0.36094666 -1.8973389 1.0828705 -2.5266876c0.72190857 -0.6478882 1.9158478 -0.971817 3.5818024 -0.971817l23.98973 0l0 -98.957825z" fill-rule="evenodd"/><path fill="#333333" d="m37.481224 127.99859l90.51969 0l0 -90.519684l0 90.519684l90.519684 0l-90.519684 0l0 90.51969l0 -90.51969z" fill-rule="evenodd"/><path stroke="#000000" stroke-width="24.0" stroke-linejoin="round" stroke-linecap="butt" d="m37.481224 127.99859l90.51969 0l0 -90.519684l0 90.519684l90.519684 0l-90.519684 0l0 90.51969l0 -90.51969z" fill-rule="evenodd"/><path fill="#333333" d="m37.481224 127.99859l26.512604 -64.00708l64.00709 -26.5126l64.00708 26.5126l26.512604 64.00708l-26.512604 64.00709l-64.00708 26.512604l-64.00709 -26.512604z" fill-rule="evenodd"/><path fill="#eeeeee" d="m73.686226 127.99893l15.908485 -38.40648l38.40648 -15.908485l38.40648 15.908485l15.908478 38.40648l-15.908478 38.40648l-38.40648 15.908478l-38.40648 -15.908478z" fill-rule="evenodd"/><path stroke="#000000" stroke-width="4.0" stroke-linejoin="round" stroke-linecap="butt" d="m73.686226 127.99893l15.908485 -38.40648l38.40648 -15.908485l38.40648 15.908485l15.908478 38.40648l-15.908478 38.40648l-38.40648 15.908478l-38.40648 -15.908478z" fill-rule="evenodd"/><path fill="#000000" fill-opacity="0.0" d="m127.99394 67.65061l0 -30.17323" fill-rule="evenodd"/><path stroke="#fff8ef" stroke-width="2.0" stroke-linejoin="round" stroke-linecap="butt" d="m127.99394 67.65061l0 -30.17323" fill-rule="evenodd"/><path fill="#000000" fill-opacity="0.0" d="m170.66245 85.32431l21.259857 -21.259842" fill-rule="evenodd"/><path stroke="#fff8ef" stroke-width="2.0" stroke-linejoin="round" stroke-linecap="butt" d="m170.66245 85.32431l21.259857 -21.259842" fill-rule="evenodd"/><path fill="#000000" fill-opacity="0.0" d="m188.33632 127.99239l30.173233 0" fill-rule="evenodd"/><path stroke="#fff8ef" stroke-width="2.0" stroke-linejoin="round" stroke-linecap="butt" d="m188.33632 127.99239l30.173233 0" fill-rule="evenodd"/><path fill="#000000" fill-opacity="0.0" d="m170.66245 170.66048l21.259857 21.259842" fill-rule="evenodd"/><path stroke="#fff8ef" stroke-width="2.0" stroke-linejoin="round" stroke-linecap="butt" d="m170.66245 170.66048l21.259857 21.259842" fill-rule="evenodd"/><path fill="#000000" d="m89.83885 111.95656c-1.6659546 0 -2.8598862 0.33319092 -3.5818024 0.99957275c-0.72190857 0.66638184 -1.0828705 1.4993668 -1.0828705 2.4989395c0 1.0551071 0.3609619 1.9158478 1.0828705 2.5822296c0.7219162 0.66638184 1.9158478 0.99957275 3.5818024 0.99957275l76.300705 0c1.6659546 0 2.8598785 -0.33319092 3.5818024 -0.99957275c0.72190857 -0.66638184 1.0828705 -1.4993591 1.0828705 -2.498932c0 -1.0551071 -0.3609619 -1.9158554 -1.0828705 -2.5822372c-0.7219238 -0.66638184 -1.9158478 -0.99957275 -3.5818024 -0.99957275zm0 25.155945c-1.6659546 0 -2.8598862 0.32392883 -3.5818024 0.971817c-0.72190857 0.62934875 -1.0828705 1.4715881 -1.0828705 2.526703c0 1.0550995 0.3609619 1.9065857 1.0828705 2.5544586c0.7219162 0.629364 1.9158478 0.944046 3.5818024 0.944046l76.300705 0c1.6659546 0 2.8598785 -0.314682 3.5818024 -0.944046c0.72190857 -0.6478729 1.0828705 -1.4993591 1.0828705 -2.5544586c0 -1.0551147 -0.3609619 -1.8973541 -1.0828705 -2.526703c-0.7219238 -0.6478882 -1.9158478 -0.971817 -3.5818024 -0.971817z" fill-rule="evenodd"/><path fill="#000000" fill-opacity="0.0" d="m127.99394 188.33417l0 30.173233" fill-rule="evenodd"/><path stroke="#fff8ef" stroke-width="2.0" stroke-linejoin="round" stroke-linecap="butt" d="m127.99394 188.33417l0 30.173233" fill-rule="evenodd"/><path fill="#000000" fill-opacity="0.0" d="m85.32685 85.32431l-21.259842 -21.259842" fill-rule="evenodd"/><path stroke="#fff8ef" stroke-width="2.0" stroke-linejoin="round" stroke-linecap="butt" d="m85.32685 85.32431l-21.259842 -21.259842" fill-rule="evenodd"/><path fill="#000000" fill-opacity="0.0" d="m67.65298 127.99239l-30.173225 0" fill-rule="evenodd"/><path stroke="#fff8ef" stroke-width="2.0" stroke-linejoin="round" stroke-linecap="butt" d="m67.65298 127.99239l-30.173225 0" fill-rule="evenodd"/><path fill="#000000" fill-opacity="0.0" d="m85.32685 170.66048l-21.259842 21.259842" fill-rule="evenodd"/><path stroke="#fff8ef" stroke-width="2.0" stroke-linejoin="round" stroke-linecap="butt" d="m85.32685 170.66048l-21.259842 21.259842" fill-rule="evenodd"/><path fill="#ffffff" d="m73.686226 127.99893l42.93743 -11.377533l11.377533 -42.93743l11.377533 42.93743l42.937424 11.377533l-42.937424 11.377533l-11.377533 42.937424l-11.377533 -42.937424z" fill-rule="evenodd"/><path stroke="#333333" stroke-width="3.0" stroke-linejoin="round" stroke-linecap="butt" d="m73.686226 127.99893l42.93743 -11.377533l11.377533 -42.93743l11.377533 42.93743l42.937424 11.377533l-42.937424 11.377533l-11.377533 42.937424l-11.377533 -42.937424z" fill-rule="evenodd"/><path fill="#ffffff" d="m89.59865 89.600075l38.3937 22.308792l38.3937 -22.308792l-22.308792 38.393707l22.308792 38.3937l-38.3937 -22.308792l-38.3937 22.308792l22.308792 -38.3937z" fill-rule="evenodd"/><path stroke="#333333" stroke-width="3.0" stroke-linejoin="round" stroke-linecap="butt" d="m89.59865 89.600075l38.3937 22.308792l38.3937 -22.308792l-22.308792 38.393707l22.308792 38.3937l-38.3937 -22.308792l-38.3937 22.308792l22.308792 -38.3937z" fill-rule="evenodd"/><path fill="#333333" d="m109.891235 127.999275l5.3043594 -12.80587l12.80587 -5.304367l12.805878 5.304367l5.304367 12.80587l-5.304367 12.80587l-12.805878 5.304367l-12.80587 -5.304367z" fill-rule="evenodd"/><path fill="#000000" fill-opacity="0.0" d="m0.008740945 127.99173l0 0c0 -70.68375 57.300503 -127.98425 127.98425 -127.98425l0 0c33.943527 0 66.496826 13.484016 90.498535 37.48572c24.001694 24.001701 37.485718 56.554996 37.485718 90.498535l0 0c0 70.68375 -57.300507 127.98425 -127.98425 127.98425l0 0c-70.683754 0 -127.98425 -57.300507 -127.98425 -127.98425z" fill-rule="evenodd"/><path stroke="#ffffff" stroke-width="8.0" stroke-linejoin="round" stroke-linecap="butt" d="m0.008740945 127.99173l0 0c0 -70.68375 57.300503 -127.98425 127.98425 -127.98425l0 0c33.943527 0 66.496826 13.484016 90.498535 37.48572c24.001694 24.001701 37.485718 56.554996 37.485718 90.498535l0 0c0 70.68375 -57.300507 127.98425 -127.98425 127.98425l0 0c-70.683754 0 -127.98425 -57.300507 -127.98425 -127.98425z" fill-rule="evenodd"/></g></svg>